<mxfile host="app.diagrams.net" modified="2024-11-24T14:13:38.268Z" agent="Mozilla/5.0 (X11; Linux x86_64) AppleWebKit/537.36 (KHTML, like Gecko) Chrome/131.0.0.0 Safari/537.36" version="24.6.4" etag="O341HNLtoyxvINm_QGM0" type="github">
  <diagram name="Page-1" id="LzJMv2zb1k2Lqvr5Vwyf">
    <mxGraphModel>
      <root>
        <mxCell id="0" />
        <mxCell id="1" parent="0" />
      </root>
    </mxGraphModel>
  </diagram>
</mxfile>
